{
  "accessors": [
    {
      "bufferView": 2,
      "componentType": 5126,
      "count": 46634,
      "max": [
        6.967996120452881,
        16.117338180541992,
        179.77125549316406
      ],
      "min": [
        -166.96800231933594,
        -20.25290298461914,
        0.04918999969959259
      ],
      "type": "VEC3"
    },
    {
      "bufferView": 2,
      "byteOffset": 559608,
      "componentType": 5126,
      "count": 46634,
      "max": [
        0.9999943375587463,
        0.9999997615814209,
        0.9999695420265198
      ],
      "min": [
        -0.9999880194664001,
        -0.9999962449073792,
        -0.999995768070221
      ],
      "type": "VEC3"
    },
    {
      "bufferView": 1,
      "componentType": 5126,
      "count": 46634,
      "max": [
        0.9967420101165771,
        0.8317649960517883
      ],
      "min": [
        0.0,
        0.0
      ],
      "type": "VEC2"
    },
    {
      "bufferView": 0,
      "componentType": 5125,
      "count": 269928,
      "type": "SCALAR"
    },
    {
      "bufferView": 2,
      "byteOffset": 1119216,
      "componentType": 5126,
      "count": 14,
      "max": [
        -79.99913787841797,
        -11.19021987915039,
        161.41506958007813
      ],
      "min": [
        -79.99919128417969,
        -12.201910018920898,
        160.93630981445313
      ],
      "type": "VEC3"
    },
    {
      "bufferView": 2,
      "byteOffset": 1119384,
      "componentType": 5126,
      "count": 14,
      "max": [
        1.0,
        0.00018927527708001435,
        0.00033614045241847634
      ],
      "min": [
        -1.0,
        -0.00018927527708001435,
        -0.00033614045241847634
      ],
      "type": "VEC3"
    },
    {
      "bufferView": 1,
      "byteOffset": 373072,
      "componentType": 5126,
      "count": 14,
      "max": [
        0.5117189884185791,
        0.5019879937171936
      ],
      "min": [
        0.5113940238952637,
        0.5009509921073914
      ],
      "type": "VEC2"
    },
    {
      "bufferView": 0,
      "byteOffset": 1079712,
      "componentType": 5125,
      "count": 36,
      "type": "SCALAR"
    }
  ],
  "asset": {
    "extras": {
      "author": "issamchong (https://sketchfab.com/issamchong)",
      "license": "SKETCHFAB Standard (https://sketchfab.com/licenses)",
      "source": "https://sketchfab.com/3d-models/body-smooth-0788c4df466241f3a0335313ce5737cd",
      "title": "body_smooth"
    },
    "generator": "Sketchfab-16.16.0",
    "version": "2.0"
  },
  "bufferViews": [
    {
      "buffer": 0,
      "byteLength": 1079856,
      "name": "floatBufferViews",
      "target": 34963
    },
    {
      "buffer": 0,
      "byteLength": 373184,
      "byteOffset": 1079856,
      "byteStride": 8,
      "name": "floatBufferViews",
      "target": 34962
    },
    {
      "buffer": 0,
      "byteLength": 1119552,
      "byteOffset": 1453040,
      "byteStride": 12,
      "name": "floatBufferViews",
      "target": 34962
    }
  ],
  "buffers": [
    {
      "byteLength": 2572592,
      "uri": "body_only.bin"
    }
  ],
  "materials": [
    {
      "doubleSided": true,
      "name": "blinn1SG",
      "pbrMetallicRoughness": {
        "metallicFactor": 0.0,
        "roughnessFactor": 0.6
      }
    }
  ],
  "meshes": [
    {
      "name": "Object_0",
      "primitives": [
        {
          "attributes": {
            "NORMAL": 1,
            "POSITION": 0,
            "TEXCOORD_0": 2
          },
          "indices": 3,
          "material": 0,
          "mode": 4
        }
      ]
    },
    {
      "name": "Object_1",
      "primitives": [
        {
          "attributes": {
            "NORMAL": 5,
            "POSITION": 4,
            "TEXCOORD_0": 6
          },
          "indices": 7,
          "material": 0,
          "mode": 4
        }
      ]
    }
  ],
  "nodes": [
    {
      "children": [
        1
      ],
      "matrix": [
        1.0,
        0.0,
        0.0,
        0.0,
        0.0,
        2.220446049250313e-16,
        -1.0,
        0.0,
        0.0,
        1.0,
        2.220446049250313e-16,
        0.0,
        0.0,
        0.0,
        0.0,
        1.0
      ],
      "name": "Sketchfab_model"
    },
    {
      "children": [
        2,
        3
      ],
      "name": "body_smooth.obj.cleaner.materialmerger.gles"
    },
    {
      "mesh": 0,
      "name": "Object_2"
    },
    {
      "mesh": 1,
      "name": "Object_3"
    }
  ],
  "scene": 0,
  "scenes": [
    {
      "name": "Sketchfab_Scene",
      "nodes": [
        0
      ]
    }
  ]
}
