{
  "accessors": [
    {
      "bufferView": 2,
      "componentType": 5126,
      "count": 29218,
      "max": [
        -68.4254150390625,
        7.87914514541626,
        124.28140258789063
      ],
      "min": [
        -91.07013702392578,
        -8.566484451293945,
        92.05818939208984
      ],
      "type": "VEC3"
    },
    {
      "bufferView": 2,
      "byteOffset": 350616,
      "componentType": 5126,
      "count": 29218,
      "max": [
        0.9999915361404419,
        0.9998878836631775,
        0.9999187588691711
      ],
      "min": [
        -0.9999505281448364,
        -0.9999866485595703,
        -0.9999321103096008
      ],
      "type": "VEC3"
    },
    {
      "bufferView": 1,
      "componentType": 5126,
      "count": 29218,
      "max": [
        0.989687979221344,
        0.977092981338501
      ],
      "min": [
        0.010281000286340714,
        0.009482000023126602
      ],
      "type": "VEC2"
    },
    {
      "bufferView": 0,
      "componentType": 5125,
      "count": 171690,
      "type": "SCALAR"
    },
    {
      "bufferView": 2,
      "byteOffset": 701232,
      "componentType": 5126,
      "count": 13636,
      "max": [
        -71.6689453125,
        1.7450929880142212,
        119.5789794921875
      ],
      "min": [
        -88.67334747314453,
        -7.763387203216553,
        108.16158294677734
      ],
      "type": "VEC3"
    },
    {
      "bufferView": 2,
      "byteOffset": 864864,
      "componentType": 5126,
      "count": 13636,
      "max": [
        0.9997506141662598,
        0.9998965859413147,
        0.9994153380393982
      ],
      "min": [
        -0.9998390078544617,
        -0.9998302459716797,
        -0.9997079968452454
      ],
      "type": "VEC3"
    },
    {
      "bufferView": 1,
      "byteOffset": 233744,
      "componentType": 5126,
      "count": 13636,
      "max": [
        0.9831100106239319,
        0.981257975101471
      ],
      "min": [
        0.019801000133156776,
        0.015724999830126762
      ],
      "type": "VEC2"
    },
    {
      "bufferView": 0,
      "byteOffset": 686760,
      "componentType": 5125,
      "count": 76632,
      "type": "SCALAR"
    }
  ],
  "asset": {
    "extras": {
      "author": "funnyeducomics (https://sketchfab.com/funnyeducomics)",
      "license": "CC-BY-4.0 (http://creativecommons.org/licenses/by/4.0/)",
      "source": "https://sketchfab.com/3d-models/large-small-intestines-cf09a181c9ba4a218ceadf2ceb2b15b2",
      "title": "Large& Small_intestines"
    },
    "generator": "Sketchfab-16.16.0",
    "version": "2.0"
  },
  "bufferViews": [
    {
      "buffer": 0,
      "byteLength": 993288,
      "name": "floatBufferViews",
      "target": 34963
    },
    {
      "buffer": 0,
      "byteLength": 342832,
      "byteOffset": 993288,
      "byteStride": 8,
      "name": "floatBufferViews",
      "target": 34962
    },
    {
      "buffer": 0,
      "byteLength": 1028496,
      "byteOffset": 1336120,
      "byteStride": 12,
      "name": "floatBufferViews",
      "target": 34962
    }
  ],
  "buffers": [
    {
      "byteLength": 2364616,
      "uri": "LargeSmall_intestines.bin"
    }
  ],
  "extensionsUsed": [
    "KHR_materials_specular"
  ],
  "images": [
    {
      "uri": "textures/MALE_F_1Digestive_Colon_GeoSG_baseColor.jpeg"
    },
    {
      "uri": "textures/MALE_F_1Digestive_Small_Intestine_GeoSG_baseColor.jpeg"
    }
  ],
  "materials": [
    {
      "doubleSided": true,
      "extensions": {
        "KHR_materials_specular": {
          "specularColorFactor": [
            1.0,
            1.0,
            1.0
          ],
          "specularFactor": 0.7177164730406796
        }
      },
      "name": "MALE_F_1Digestive_Colon_GeoSG",
      "pbrMetallicRoughness": {
        "baseColorTexture": {
          "index": 0
        },
        "metallicFactor": 0.3946678694639831,
        "roughnessFactor": 0.20597671439071177
      }
    },
    {
      "doubleSided": true,
      "name": "MALE_F_1Digestive_Small_Intestine_GeoSG",
      "pbrMetallicRoughness": {
        "baseColorTexture": {
          "index": 1
        },
        "metallicFactor": 0.0,
        "roughnessFactor": 0.6606660169096983
      }
    }
  ],
  "meshes": [
    {
      "name": "Object_0",
      "primitives": [
        {
          "attributes": {
            "NORMAL": 1,
            "POSITION": 0,
            "TEXCOORD_0": 2
          },
          "indices": 3,
          "material": 0,
          "mode": 4
        }
      ]
    },
    {
      "name": "Object_1",
      "primitives": [
        {
          "attributes": {
            "NORMAL": 5,
            "POSITION": 4,
            "TEXCOORD_0": 6
          },
          "indices": 7,
          "material": 1,
          "mode": 4
        }
      ]
    }
  ],
  "nodes": [
    {
      "children": [
        1
      ],
      "matrix": [
        1.0,
        0.0,
        0.0,
        0.0,
        0.0,
        2.220446049250313e-16,
        -1.0,
        0.0,
        0.0,
        1.0,
        2.220446049250313e-16,
        0.0,
        0.0,
        0.0,
        0.0,
        1.0
      ],
      "name": "Sketchfab_model"
    },
    {
      "children": [
        2,
        3
      ],
      "name": "Large&Small_intestines.obj.cleaner.materialmerger.gles"
    },
    {
      "mesh": 0,
      "name": "Object_2"
    },
    {
      "mesh": 1,
      "name": "Object_3"
    }
  ],
  "samplers": [
    {
      "magFilter": 9729,
      "minFilter": 9987,
      "wrapS": 10497,
      "wrapT": 10497
    }
  ],
  "scene": 0,
  "scenes": [
    {
      "name": "Sketchfab_Scene",
      "nodes": [
        0
      ]
    }
  ],
  "textures": [
    {
      "sampler": 0,
      "source": 0
    },
    {
      "sampler": 0,
      "source": 1
    }
  ]
}
