{
  "accessors": [
    {
      "bufferView": 2,
      "componentType": 5126,
      "count": 29218,
      "max": [
        -68.4254150390625,
        7.87914514541626,
        124.28140258789063
      ],
      "min": [
        -91.07013702392578,
        -8.566484451293945,
        92.05818939208984
      ],
      "type": "VEC3"
    },
    {
      "bufferView": 2,
      "byteOffset": 350616,
      "componentType": 5126,
      "count": 29218,
      "max": [
        0.9999915361404419,
        0.9998878836631775,
        0.9999187588691711
      ],
      "min": [
        -0.9999505281448364,
        -0.9999866485595703,
        -0.9999321103096008
      ],
      "type": "VEC3"
    },
    {
      "bufferView": 1,
      "componentType": 5126,
      "count": 29218,
      "max": [
        0.989687979221344,
        0.977092981338501
      ],
      "min": [
        0.010281000286340714,
        0.009482000023126602
      ],
      "type": "VEC2"
    },
    {
      "bufferView": 0,
      "componentType": 5125,
      "count": 171690,
      "type": "SCALAR"
    }
  ],
  "asset": {
    "extras": {
      "author": "funnyeducomics (https://sketchfab.com/funnyeducomics)",
      "license": "SKETCHFAB Standard (https://sketchfab.com/licenses)",
      "source": "https://sketchfab.com/3d-models/large-intestines-1e2452480336412181f750a86fa88122",
      "title": "Large intestines"
    },
    "generator": "Sketchfab-16.16.0",
    "version": "2.0"
  },
  "bufferViews": [
    {
      "buffer": 0,
      "byteLength": 686760,
      "name": "floatBufferViews",
      "target": 34963
    },
    {
      "buffer": 0,
      "byteLength": 233744,
      "byteOffset": 686760,
      "byteStride": 8,
      "name": "floatBufferViews",
      "target": 34962
    },
    {
      "buffer": 0,
      "byteLength": 701232,
      "byteOffset": 920504,
      "byteStride": 12,
      "name": "floatBufferViews",
      "target": 34962
    }
  ],
  "buffers": [
    {
      "byteLength": 1621736,
      "uri": "LargeIntestines.bin"
    }
  ],
  "images": [
    {
      "uri": "textures/MALE_F_1Digestive_Colon_GeoSG_baseColor.jpeg"
    }
  ],
  "materials": [
    {
      "doubleSided": true,
      "name": "MALE_F_1Digestive_Colon_GeoSG",
      "pbrMetallicRoughness": {
        "baseColorTexture": {
          "index": 0
        },
        "metallicFactor": 0.0,
        "roughnessFactor": 0.20597671439071177
      }
    }
  ],
  "meshes": [
    {
      "name": "Object_0",
      "primitives": [
        {
          "attributes": {
            "NORMAL": 1,
            "POSITION": 0,
            "TEXCOORD_0": 2
          },
          "indices": 3,
          "material": 0,
          "mode": 4
        }
      ]
    }
  ],
  "nodes": [
    {
      "children": [
        1
      ],
      "matrix": [
        1.0,
        0.0,
        0.0,
        0.0,
        0.0,
        2.220446049250313e-16,
        -1.0,
        0.0,
        0.0,
        1.0,
        2.220446049250313e-16,
        0.0,
        0.0,
        0.0,
        0.0,
        1.0
      ],
      "name": "Sketchfab_model"
    },
    {
      "children": [
        2
      ],
      "name": "Colon.obj.cleaner.materialmerger.gles"
    },
    {
      "mesh": 0,
      "name": "Object_2"
    }
  ],
  "samplers": [
    {
      "magFilter": 9729,
      "minFilter": 9987,
      "wrapS": 10497,
      "wrapT": 10497
    }
  ],
  "scene": 0,
  "scenes": [
    {
      "name": "Sketchfab_Scene",
      "nodes": [
        0
      ]
    }
  ],
  "textures": [
    {
      "sampler": 0,
      "source": 0
    }
  ]
}
