{
  "accessors": [
    {
      "bufferView": 2,
      "componentType": 5126,
      "count": 65532,
      "max": [
        6.92730712890625,
        15.320016860961914,
        179.70574951171875
      ],
      "min": [
        -166.92173767089844,
        -20.21937370300293,
        0.08009500056505203
      ],
      "type": "VEC3"
    },
    {
      "bufferView": 2,
      "byteOffset": 786384,
      "componentType": 5126,
      "count": 65532,
      "max": [
        0.9999977350234985,
        0.9999903440475464,
        0.9999947547912598
      ],
      "min": [
        -0.9999987483024597,
        -0.9999593496322632,
        -0.999997615814209
      ],
      "type": "VEC3"
    },
    {
      "bufferView": 1,
      "componentType": 5126,
      "count": 65532,
      "max": [
        0.9967420101165771,
        0.8317649960517883
      ],
      "min": [
        0.11646799743175507,
        0.0
      ],
      "type": "VEC2"
    },
    {
      "bufferView": 0,
      "componentType": 5125,
      "count": 363066,
      "type": "SCALAR"
    },
    {
      "bufferView": 2,
      "byteOffset": 1572768,
      "componentType": 5126,
      "count": 65532,
      "max": [
        -57.71605682373047,
        16.00928497314453,
        179.6427001953125
      ],
      "min": [
        -102.14141082763672,
        -20.219371795654297,
        0.08009500056505203
      ],
      "type": "VEC3"
    },
    {
      "bufferView": 2,
      "byteOffset": 2359152,
      "componentType": 5126,
      "count": 65532,
      "max": [
        0.9999918937683105,
        0.9999992251396179,
        0.9999955296516418
      ],
      "min": [
        -0.9999908804893494,
        -0.9999980926513672,
        -0.9999995231628418
      ],
      "type": "VEC3"
    },
    {
      "bufferView": 1,
      "byteOffset": 524256,
      "componentType": 5126,
      "count": 65532,
      "max": [
        0.9915840029716492,
        0.7972689867019653
      ],
      "min": [
        0.0,
        0.0
      ],
      "type": "VEC2"
    },
    {
      "bufferView": 0,
      "byteOffset": 1452264,
      "componentType": 5125,
      "count": 364293,
      "type": "SCALAR"
    },
    {
      "bufferView": 2,
      "byteOffset": 3145536,
      "componentType": 5126,
      "count": 63917,
      "max": [
        6.876213073730469,
        15.368914604187012,
        179.6143341064453
      ],
      "min": [
        -166.87254333496094,
        -20.12835693359375,
        0.16903899610042572
      ],
      "type": "VEC3"
    },
    {
      "bufferView": 2,
      "byteOffset": 3912540,
      "componentType": 5126,
      "count": 63917,
      "max": [
        0.999967098236084,
        0.9999903440475464,
        0.9999434947967529
      ],
      "min": [
        -0.9997783303260803,
        -0.9999300241470337,
        -0.9999882578849792
      ],
      "type": "VEC3"
    },
    {
      "bufferView": 1,
      "byteOffset": 1048512,
      "componentType": 5126,
      "count": 63917,
      "max": [
        0.9876149892807007,
        0.822380006313324
      ],
      "min": [
        0.0,
        0.010603000409901142
      ],
      "type": "VEC2"
    },
    {
      "bufferView": 0,
      "byteOffset": 2909436,
      "componentType": 5125,
      "count": 352353,
      "type": "SCALAR"
    },
    {
      "bufferView": 2,
      "byteOffset": 4679544,
      "componentType": 5126,
      "count": 26,
      "max": [
        -79.99913787841797,
        -11.19021987915039,
        161.41506958007813
      ],
      "min": [
        -79.99919128417969,
        -12.201910018920898,
        160.93630981445313
      ],
      "type": "VEC3"
    },
    {
      "bufferView": 2,
      "byteOffset": 4679856,
      "componentType": 5126,
      "count": 26,
      "max": [
        1.0,
        0.43860501050949097,
        0.010272995568811893
      ],
      "min": [
        -1.0,
        -9.300000237999484e-05,
        -0.9985263347625732
      ],
      "type": "VEC3"
    },
    {
      "bufferView": 1,
      "byteOffset": 1559848,
      "componentType": 5126,
      "count": 26,
      "max": [
        0.5117189884185791,
        0.5019879937171936
      ],
      "min": [
        0.5113940238952637,
        0.5009509921073914
      ],
      "type": "VEC2"
    },
    {
      "bufferView": 0,
      "byteOffset": 4318848,
      "componentType": 5125,
      "count": 144,
      "type": "SCALAR"
    }
  ],
  "asset": {
    "extras": {
      "author": "issamchong (https://sketchfab.com/issamchong)",
      "license": "CC-BY-4.0 (http://creativecommons.org/licenses/by/4.0/)",
      "source": "https://sketchfab.com/3d-models/body-textured-smoothed-7ddbd49fb5cd45bfb1a8885c09f7aefb",
      "title": "body_textured_smoothed"
    },
    "generator": "Sketchfab-16.16.0",
    "version": "2.0"
  },
  "bufferViews": [
    {
      "buffer": 0,
      "byteLength": 4319424,
      "name": "floatBufferViews",
      "target": 34963
    },
    {
      "buffer": 0,
      "byteLength": 1560056,
      "byteOffset": 4319424,
      "byteStride": 8,
      "name": "floatBufferViews",
      "target": 34962
    },
    {
      "buffer": 0,
      "byteLength": 4680168,
      "byteOffset": 5879480,
      "byteStride": 12,
      "name": "floatBufferViews",
      "target": 34962
    }
  ],
  "buffers": [
    {
      "byteLength": 10559648,
      "uri": "Skin.bin"
    }
  ],
  "extensionsUsed": [
    "KHR_materials_specular"
  ],
  "images": [
    {
      "uri": "textures/MALE_F_1Male_Body_No_Genitals_Geo001SG_baseColor.jpeg"
    }
  ],
  "materials": [
    {
      "doubleSided": true,
      "extensions": {
        "KHR_materials_specular": {
          "specularColorFactor": [
            1.0,
            1.0,
            1.0
          ],
          "specularFactor": 0.13257183259987076
        }
      },
      "name": "MALE_F_1Male_Body_No_Genitals_Geo001SG",
      "pbrMetallicRoughness": {
        "baseColorTexture": {
          "index": 0
        },
        "metallicFactor": 0.10819080591483707,
        "roughnessFactor": 0.2605722226962977
      }
    }
  ],
  "meshes": [
    {
      "name": "Object_0",
      "primitives": [
        {
          "attributes": {
            "NORMAL": 1,
            "POSITION": 0,
            "TEXCOORD_0": 2
          },
          "indices": 3,
          "material": 0,
          "mode": 4
        }
      ]
    },
    {
      "name": "Object_1",
      "primitives": [
        {
          "attributes": {
            "NORMAL": 5,
            "POSITION": 4,
            "TEXCOORD_0": 6
          },
          "indices": 7,
          "material": 0,
          "mode": 4
        }
      ]
    },
    {
      "name": "Object_2",
      "primitives": [
        {
          "attributes": {
            "NORMAL": 9,
            "POSITION": 8,
            "TEXCOORD_0": 10
          },
          "indices": 11,
          "material": 0,
          "mode": 4
        }
      ]
    },
    {
      "name": "Object_3",
      "primitives": [
        {
          "attributes": {
            "NORMAL": 13,
            "POSITION": 12,
            "TEXCOORD_0": 14
          },
          "indices": 15,
          "material": 0,
          "mode": 4
        }
      ]
    }
  ],
  "nodes": [
    {
      "children": [
        1
      ],
      "matrix": [
        1.0,
        0.0,
        0.0,
        0.0,
        0.0,
        2.220446049250313e-16,
        -1.0,
        0.0,
        0.0,
        1.0,
        2.220446049250313e-16,
        0.0,
        0.0,
        0.0,
        0.0,
        1.0
      ],
      "name": "Sketchfab_model"
    },
    {
      "children": [
        2,
        3,
        4,
        5
      ],
      "name": "body_textured_smoothed.obj.cleaner.materialmerger.gles"
    },
    {
      "mesh": 0,
      "name": "Object_2"
    },
    {
      "mesh": 1,
      "name": "Object_3"
    },
    {
      "mesh": 2,
      "name": "Object_4"
    },
    {
      "mesh": 3,
      "name": "Object_5"
    }
  ],
  "samplers": [
    {
      "magFilter": 9729,
      "minFilter": 9987,
      "wrapS": 10497,
      "wrapT": 10497
    }
  ],
  "scene": 0,
  "scenes": [
    {
      "name": "Sketchfab_Scene",
      "nodes": [
        0
      ]
    }
  ],
  "textures": [
    {
      "sampler": 0,
      "source": 0
    }
  ]
}
